<svg width="71" height="71" viewBox="0 0 71 71" fill="none" xmlns="http://www.w3.org/2000/svg">
<rect width="71" height="71" rx="35.5" fill="url(#paint0_radial_1_6)"/>
<rect width="71" height="71" rx="35.5" fill="url(#paint1_radial_1_6)"/>
<path d="M25.8232 45L24.6011 41.0211H17.4958L16.2737 45H13.9716L19.6842 27.0947H22.64L28.2958 45H25.8232ZM20.9916 28.9421C20.9726 29.0937 20.9158 29.4063 20.8211 29.88C20.7453 30.3347 20.6695 30.6853 20.5937 30.9316L18.1495 38.9179H23.9474L21.5316 30.9316C21.4558 30.6853 21.3705 30.3347 21.2758 29.88C21.1811 29.4063 21.1242 29.0937 21.1053 28.9421H20.9916ZM35.6264 26.7537C35.3233 28.2316 34.8685 29.7853 34.2622 31.4147C33.6559 33.0442 33.0212 34.5221 32.358 35.8484C31.7138 37.1558 31.2022 38.0937 30.8233 38.6621H35.7401V33.0347C35.9864 32.4663 36.1759 31.9358 36.3085 31.4432C36.4601 30.9505 36.6401 30.2779 36.8485 29.4253H37.8717V38.6621H39.6906V40.5947H37.8717V45H35.7401V40.5947H28.8338V38.6337C29.7812 36.8905 30.6622 34.9768 31.477 32.8926C32.3106 30.8084 32.9738 28.7621 33.4664 26.7537H35.6264ZM47.5901 27.0947C49.7501 27.0947 51.4175 27.8337 52.5922 29.3116C53.7859 30.7895 54.3828 32.9495 54.3828 35.7916C54.3828 38.8042 53.7859 41.0968 52.5922 42.6695C51.4175 44.2232 49.7501 45 47.5901 45H42.0196V27.0947H47.5901ZM47.3912 42.8968C48.8501 42.8968 49.9775 42.3568 50.7733 41.2768C51.588 40.1779 51.9954 38.5579 51.9954 36.4168V35.1379C51.9954 33.1674 51.588 31.68 50.7733 30.6758C49.9775 29.6716 48.8501 29.1695 47.3912 29.1695H44.3501V42.8968H47.3912Z" fill="url(#paint2_linear_1_6)"/>
<path d="M25.8232 45L24.6011 41.0211H17.4958L16.2737 45H13.9716L19.6842 27.0947H22.64L28.2958 45H25.8232ZM20.9916 28.9421C20.9726 29.0937 20.9158 29.4063 20.8211 29.88C20.7453 30.3347 20.6695 30.6853 20.5937 30.9316L18.1495 38.9179H23.9474L21.5316 30.9316C21.4558 30.6853 21.3705 30.3347 21.2758 29.88C21.1811 29.4063 21.1242 29.0937 21.1053 28.9421H20.9916ZM35.6264 26.7537C35.3233 28.2316 34.8685 29.7853 34.2622 31.4147C33.6559 33.0442 33.0212 34.5221 32.358 35.8484C31.7138 37.1558 31.2022 38.0937 30.8233 38.6621H35.7401V33.0347C35.9864 32.4663 36.1759 31.9358 36.3085 31.4432C36.4601 30.9505 36.6401 30.2779 36.8485 29.4253H37.8717V38.6621H39.6906V40.5947H37.8717V45H35.7401V40.5947H28.8338V38.6337C29.7812 36.8905 30.6622 34.9768 31.477 32.8926C32.3106 30.8084 32.9738 28.7621 33.4664 26.7537H35.6264ZM47.5901 27.0947C49.7501 27.0947 51.4175 27.8337 52.5922 29.3116C53.7859 30.7895 54.3828 32.9495 54.3828 35.7916C54.3828 38.8042 53.7859 41.0968 52.5922 42.6695C51.4175 44.2232 49.7501 45 47.5901 45H42.0196V27.0947H47.5901ZM47.3912 42.8968C48.8501 42.8968 49.9775 42.3568 50.7733 41.2768C51.588 40.1779 51.9954 38.5579 51.9954 36.4168V35.1379C51.9954 33.1674 51.588 31.68 50.7733 30.6758C49.9775 29.6716 48.8501 29.1695 47.3912 29.1695H44.3501V42.8968H47.3912Z" fill="url(#paint3_linear_1_6)"/>
<defs>
<radialGradient id="paint0_radial_1_6" cx="0" cy="0" r="1" gradientUnits="userSpaceOnUse" gradientTransform="translate(69 6.00001) rotate(137.576) scale(102.28)">
<stop stop-color="#CE7171"/>
<stop offset="1" stop-color="#2B283E" stop-opacity="0"/>
</radialGradient>
<radialGradient id="paint1_radial_1_6" cx="0" cy="0" r="1" gradientUnits="userSpaceOnUse" gradientTransform="translate(69 6.00001) rotate(137.576) scale(102.28)">
<stop stop-color="#CE7171"/>
<stop offset="1" stop-color="#2B283E" stop-opacity="0"/>
</radialGradient>
<linearGradient id="paint2_linear_1_6" x1="35" y1="21.5" x2="35" y2="57.3158" gradientUnits="userSpaceOnUse">
<stop stop-color="#9E1414"/>
<stop offset="1" stop-color="#EB3DBA" stop-opacity="0.65"/>
</linearGradient>
<linearGradient id="paint3_linear_1_6" x1="35" y1="21.5" x2="35" y2="57.3158" gradientUnits="userSpaceOnUse">
<stop stop-color="#9E1414"/>
<stop offset="1" stop-color="#EB3DBA" stop-opacity="0.65"/>
</linearGradient>
</defs>
</svg>
