<svg xmlns="http://www.w3.org/2000/svg" xmlns:xlink="http://www.w3.org/1999/xlink" enable-background="new 0 0 72 72" viewBox="0 0 72 72"><path fill="#12B8A7" d="M71,36c0,19.3462-15.6938,35-35,35C16.579,71,1,55.2339,1,36C1,16.67,16.67,1,36,1S71,16.67,71,36z"/><defs><path id="a" d="M71,36c0,19.0306-15.3598,35-35,35C16.6428,71,1,55.2934,1,36C1,16.67,16.67,1,36,1S71,16.67,71,36z"/></defs><clipPath id="b"><use overflow="visible" xlink:href="#a"/></clipPath><g clip-path="url(#b)"><path fill="#445A6B" d="M65.8971,71H6.1029l5.2439-15.8831c0.7982-2.4148,3.0614-4.0516,5.5975-4.0516h38.1115
				c2.5462,0,4.7993,1.6368,5.5975,4.0516L65.8971,71z"/><rect width="14.145" height="19.935" x="28.937" y="51.065" fill="#D2DBE0"/><polygon fill="#B9C1C6" points="43.505 51.069 43.646 61.034 36.006 56.243 28.368 61.034 28.201 51.069 31.782 49.431 40.221 49.431"/><path fill="#EE432C" d="M34.2882 61.2232c.069.2221.2745.3734.5071.3734h2.4129c.2326 0 .4381-.1513.5072-.3734l.6283-2.021c.1063-.3419-.1492-.6888-.5072-.6888H34.167c-.358 0-.6134.3469-.5071.6888L34.2882 61.2232zM37.6185 62.484c-.0283-.2504-.2401-.4396-.4921-.4396h-2.2502c-.252 0-.4637.1892-.4921.4396L33.3067 71h5.3893L37.6185 62.484z"/><path fill="#112B3F" d="M32.9313 71h-6.3666l-5.7191-7.921 4.4337-2.6702-4.085-2.2518c2.6602-2.7698 4.384-5.0714 6.277-6.815.9665-.8967 1.9728-1.644 3.1684-2.2318-.0996.1295-.2092.259-.3089.3985-.4185.558-.7273 1.1857-.9366 1.8333C28.3407 54.6053 29.7994 56.4002 32.9313 71zM51.1646 63.0789L45.4355 71h-6.3667l3.6765-15.6826c.3188-1.3252.2789-2.7101-.1395-3.9754-.2093-.6477-.5181-1.2754-.9366-1.8333-.0996-.1395-.2093-.269-.3089-.3985 1.2056.5878 2.2119 1.3351 3.1784 2.2318 1.8831 1.7436 3.6068 4.0552 6.277 6.815l-4.095 2.2518L51.1646 63.0789z"/><path fill="#FAB687" d="M42.1331,39.8849v8.8259c0,3.6026-2.6627,6.5218-5.9488,6.5218h-0.3651
				c-3.2861,0-5.9489-2.9192-5.9489-6.5218v-8.8259H42.1331z"/><path fill="#F8A771" d="M36.025,49.7537L36.025,49.7537c-3.0926,0-5.7334-2.1543-6.0051-4.9969
				c-0.0458-0.4796-0.069-0.9635-0.069-1.451c0-0.484,0.0229-0.964,0.068-1.4394c0.2695-2.8431,2.9121-4.9976,6.005-4.9976h0.0012
				c3.329,0,6.0277,2.4902,6.0277,5.562v1.7609C42.0527,47.2635,39.354,49.7537,36.025,49.7537z"/><path fill="#FAB687" d="M51.4493,28.8954c0,1.2933-0.1111,2.5663-0.3132,3.7889c-1.4448,8.5882-7.6687,15.0446-15.1355,15.0446
				S22.31,41.2726,20.8652,32.6843c-0.2021-1.2226-0.3132-2.4957-0.3132-3.7889c0-5.2136,1.7378-9.9219,4.5467-13.337
				c2.7987-3.3949,6.6482-5.4965,10.902-5.4965s8.1033,2.1016,10.902,5.4965C49.7115,18.9735,51.4493,23.6818,51.4493,28.8954z"/><path fill="#663430" d="M24.8788,13.0256c-0.5663-1.243-0.2397-2.7775,0.6129-3.8445s2.1557-1.7043,3.4934-1.9802
				c1.3377-0.2759,2.7205-0.221,4.0818-0.11c2.245,0.183,4.4778,0.5152,6.6788,0.9937c2.236,0.4861,4.4571,1.1303,6.4804,2.1991
				s3.8504,2.5875,5.0244,4.5516c1.461,2.4444,1.8192,5.4037,1.6979,8.2489c-0.1811,4.2474-1.4575,8.3566-3.5297,12.0687
				c-0.3735-3.3223-0.747-6.6446-1.1204-9.9669c-0.1338-1.1906-0.2852-2.4313-0.9458-3.4309
				c-0.7539-1.1408-2.0783-1.7982-3.4184-2.0704c-1.3401-0.2722-2.7217-0.2087-4.0891-0.2034
				c-2.7167,0.0106-5.434-0.2141-8.1122-0.6696c-1.8897-0.3214-4.4448-1.2661-6.0519,0.3244
				c-0.7251,0.7177-0.9478,1.7859-1.1368,2.7884c-0.8264,4.3837-1.6527,8.7675-2.4791,13.1512
				c-2.2988-4.7266-3.351-9.9992-2.9508-15.24c0.1259-1.6485,0.4067-3.3358,1.2713-4.7451S23.2294,12.9119,24.8788,13.0256z"/><path fill="#FAB687" d="M20.6016,30.0731c0.046,0.8862,0.1235,1.7634,0.2637,2.6112
				c1.4448,8.5883,7.6687,15.0445,15.1354,15.0445c7.4668,0,13.6908-6.4562,15.1356-15.0445
				c0.1402-0.8478,0.2177-1.725,0.2635-2.6112H20.6016z"/><circle cx="30.514" cy="30.593" r="1.594" fill="#3D2F46"/><circle cx="40.737" cy="30.593" r="1.594" fill="#3D2F46"/><path fill="#3D2F46" d="M31.8333 26.7169l-.0278-.142c-.0767-.3918-.4566-.6472-.8484-.5705l-3.3816.6625c-.3918.0768-.6472.4567-.5705.8484l.0278.142c.0767.3918.4566.6472.8484.5705l3.3816-.6625C31.6546 27.4885 31.91 27.1086 31.8333 26.7169zM43.6755 26.6669l-3.3816-.6625c-.3918-.0767-.7717.1786-.8484.5705l-.0278.142c-.0768.3918.1786.7717.5705.8484l3.3815.6625c.3918.0767.7717-.1787.8485-.5705l.0278-.142C44.3227 27.1235 44.0673 26.7436 43.6755 26.6669z"/><path fill="#663430" d="M41.2384,39.6567c-0.0722,1.2178-0.5864,2.3004-1.3802,3.1122c-0.018,0.0181-0.027,0.0271-0.0451,0.0451
					c-0.0992,0.0993-0.1984,0.1985-0.3157,0.2887c-0.7938,0.6946-1.8313,1.1547-2.9769,1.2629
					c-0.1624,0.009-0.3428,0.0181-0.5142,0.0181c-0.2526,0-0.4961-0.0181-0.7397-0.0452c-0.2255-0.0361-0.442-0.0812-0.6585-0.1443
					c-0.0181,0-0.0271-0.009-0.0451-0.009c-0.0361-0.009-0.0812-0.027-0.1173-0.0361c-2.0207-0.5864-3.5632-2.3364-3.6805-4.4924
					H41.2384z"/><path fill="#EF4F63" d="M39.8581,42.7689c-0.018,0.0181-0.027,0.0271-0.0451,0.0451c-0.0992,0.0993-0.1984,0.1985-0.3157,0.2887
					c-0.7938,0.6946-1.8313,1.1547-2.9769,1.2629c-0.1624,0.009-0.3428,0.0181-0.5142,0.0181c-0.2526,0-0.4961-0.0181-0.7397-0.0452
					c-0.2436-0.0361-0.4781-0.0812-0.7126-0.1443l0.009-0.009c0.1173-0.2887,0.3067-0.5503,0.5323-0.7938
					c0.5954-0.6585,1.4614-1.0735,2.3544-1.1456c0.7037-0.0451,1.4072,0.1353,2.0748,0.3879
					C39.6326,42.6787,39.7499,42.7148,39.8581,42.7689z"/><g><ellipse cx="50.704" cy="29.982" fill="#FAB687" rx="3.172" ry="4.096"/><ellipse cx="21.299" cy="29.982" fill="#FAB687" rx="3.172" ry="4.096"/></g></g></svg>