<svg xmlns="http://www.w3.org/2000/svg" width="26" height="26" viewBox="0 0 26 26"><g fill="#fff" transform="translate(5 -1031.362)"><circle cx="8" cy="1044.362" r="13" fill="#3a6c87"/><path fill="#2f4b6c" style="line-height:normal;text-indent:0;text-align:start;text-decoration-line:none;text-decoration-style:solid;text-decoration-color:#000;text-transform:none;block-progression:tb;isolation:auto;mix-blend-mode:normal" d="M 7.474609,1057.3368 A 12.999996,12.999996 0 0 0 8,1057.3622 a 12.999996,12.999996 0 0 0 0.919922,-0.033 12.999996,12.999996 0 0 0 1.289062,-0.1562 12.999996,12.999996 0 0 0 1.267578,-0.2852 12.999996,12.999996 0 0 0 1.234376,-0.4082 12.999996,12.999996 0 0 0 1.185546,-0.5313 12.999996,12.999996 0 0 0 1.126954,-0.6464 12.999996,12.999996 0 0 0 1.05664,-0.7559 12.999996,12.999996 0 0 0 0.976563,-0.8574 12.999996,12.999996 0 0 0 0.886718,-0.9512 12.999996,12.999996 0 0 0 0.785157,-1.0352 12.999996,12.999996 0 0 0 0.679687,-1.1074 12.999996,12.999996 0 0 0 0.566406,-1.1699 12.999996,12.999996 0 0 0 0.445313,-1.2207 12.999996,12.999996 0 0 0 0.320312,-1.2598 12.999996,12.999996 0 0 0 0.195313,-1.2851 12.999996,12.999996 0 0 0 0.06445,-1.2969 12.999996,12.999996 0 0 0 -0.0332,-0.9199 12.999996,12.999996 0 0 0 -0.08398,-0.6953 l -5.884773,-5.8848 a 0.50005,0.50005 0 0 0 -0.5,-0.5 L 4,1036.3622 c -1.0613181,0 -1.928926,0.8415 -1.9882812,1.8887 A 0.50005,0.50005 0 0 0 2,1038.3622 l 0,13.5 a 0.50005,0.50005 0 0 0 0.5,0.5 l 4.974609,4.9746 z" color="#000" font-family="sans-serif" font-weight="400"/><path style="line-height:normal;text-indent:0;text-align:start;text-decoration-line:none;text-decoration-style:solid;text-decoration-color:#000;text-transform:none;block-progression:tb;isolation:auto;mix-blend-mode:normal" d="M 4,0 C 2.9386819,0 2.071074,0.84148515 2.0117188,1.8886719 A 0.50005,0.50005 0 0 0 2,2 L 2,15.5 A 0.50005,0.50005 0 0 0 2.5,16 l 12,0 A 0.50005,0.50005 0 0 0 15,15.5 L 15,3.5585938 a 0.50005,0.50005 0 0 0 -0.0098,-0.109375 0.50005,0.50005 0 0 0 -0.333984,-0.421875 c 0,0 -0.664064,-0.1553438 -0.664062,-1.0273438 0,-0.8719 0.664062,-1.02539062 0.664062,-1.02539062 A 0.50005,0.50005 0 0 0 14.498047,0 L 4,0 Z m 0,1 9.431641,0 c -0.1937,0.2902 -0.439453,0.5261 -0.439453,1 0,0.4735 0.246066,0.71 0.439453,1 L 4,3 C 3.437345,3 3,2.5627 3,2 3,1.4374 3.437345,1 4,1 Z M 3,3.71875 C 3.2959031,3.8922587 3.6342676,4 4,4 L 14,4 14,15 3,15 3,3.71875 Z M 7.4589844,7 c -0.5463625,0 -1,0.4537 -1,1 0,0.09791 0.029585,0.187469 0.056641,0.2773438 L 4.7441406,10.048828 C 4.6639761,10.027661 4.5861976,10 4.5,10 c -0.5463624,0 -1,0.4537 -1,1 0,0.5464 0.4536376,1 1,1 0.5463624,0 1,-0.4536 1,-1 0,-0.08558 -0.029906,-0.162544 -0.050781,-0.242188 L 7.25,8.9570312 C 7.3195206,8.9726912 7.3851917,9 7.4589844,9 7.5568879,9 7.6464559,8.9704133 7.7363281,8.9433594 l 2.4101559,2.4101566 a 0.50005,0.50005 0 0 0 0.800782,-0.128907 l 1.11914,-2.2382809 C 12.581065,8.9496991 13,8.522949 13,8 13,7.4537 12.546362,7 12,7 c -0.546362,0 -1,0.4537 -1,1 0,0.1983236 0.07546,0.3726775 0.177734,0.5292969 L 10.363281,10.15625 8.4160156,8.2089844 C 8.4316766,8.1394612 8.4589844,8.0737977 8.4589844,8 c 0,-0.5463 -0.4536376,-1 -1,-1 z" color="#000" font-family="sans-serif" font-weight="400" overflow="visible" transform="translate(0 1036.362)"/></g></svg>